<?xml version="1.0" encoding="UTF-8"?>
<svg version="1.1" xmlns="http://www.w3.org/2000/svg" width="200" height="200">
<path d="M0 0 C66 0 132 0 200 0 C200 66 200 132 200 200 C134 200 68 200 0 200 C0 134 0 68 0 0 Z " fill="#252438" transform="translate(0,0)"/>
<path d="M0 0 C5.29961096 2.89978713 8.52847371 6.02200719 10.3125 11.8125 C10.63308409 14.74432336 10.68428933 17.66582412 10.7265625 20.61328125 C10.74592865 21.44965622 10.7652948 22.28603119 10.7852478 23.14775085 C10.84480192 25.8067317 10.89133174 28.4657564 10.9375 31.125 C10.97570206 32.93296109 11.01475509 34.74090442 11.0546875 36.54882812 C11.15207814 40.96995716 11.23183725 45.39090775 11.3125 49.8125 C17.2525 49.8125 23.1925 49.8125 29.3125 49.8125 C29.34988281 47.13898438 29.38726562 44.46546875 29.42578125 41.7109375 C29.47204896 39.10945656 29.52326347 36.50811652 29.57495117 33.90673828 C29.60811773 32.10474271 29.63617525 30.30264533 29.65893555 28.50048828 C29.69263432 25.90353177 29.74495649 23.30750134 29.80078125 20.7109375 C29.80717117 19.9107016 29.8135611 19.1104657 29.82014465 18.28598022 C29.96857278 12.58454268 31.02139643 8.24647863 35.06640625 3.94921875 C35.66324219 3.47097656 36.26007813 2.99273437 36.875 2.5 C37.47441406 2.00886719 38.07382813 1.51773438 38.69140625 1.01171875 C42.64741188 -1.91477216 46.55226141 -1.72739926 51.3125 -1.1875 C57.20894762 0.64858244 60.85287528 3.78031859 64.3125 8.8125 C67.22962119 17.95655295 64.82965572 27.19223183 61.3125 35.8125 C59.5451804 39.02108291 57.54086739 41.91072488 55.3125 44.8125 C54.44625 46.111875 54.44625 46.111875 53.5625 47.4375 C45.1900807 56.2750537 35.11588123 60.8263937 23.06567383 61.33447266 C9.48171113 61.54394203 -0.87984256 58.46434193 -11.24609375 49.3203125 C-19.80577252 40.52781047 -24.7244898 29.17400066 -25.125 16.875 C-24.89755127 11.8197686 -23.9712006 8.10259752 -20.29296875 4.4140625 C-13.78477994 -1.28678137 -8.28562739 -2.66825289 0 0 Z " fill="#FAFAFA" transform="translate(79.6875,46.1875)"/>
<path d="M0 0 C1.0828125 1.11375 1.0828125 1.11375 2.1875 2.25 C4.84496826 5.02868151 4.84496826 5.02868151 7.77709961 6.8046875 C10.44347846 9.43797455 10.58134487 11.16067405 10.61634827 14.83935547 C10.5998674 15.59361816 10.58338654 16.34788086 10.56640625 17.125 C10.57204086 17.90891113 10.57767548 18.69282227 10.58348083 19.50048828 C10.59992378 22.0009357 10.58439522 24.49961413 10.5625 27 C10.54589923 29.50021992 10.53681589 31.99927378 10.55223083 34.49951172 C10.56150242 36.05322639 10.55237272 37.60718751 10.52259827 39.16064453 C10.54023776 42.64666586 10.7445917 44.64370975 12.80053711 47.51171875 C15.05790539 49.34626456 15.05790539 49.34626456 18.625 48.9375 C22.25516924 48.3249155 22.25516924 48.3249155 24 45 C24.36844508 42.1913957 24.36844508 42.1913957 24.4140625 39.01953125 C24.45273438 37.85615234 24.49140625 36.69277344 24.53125 35.49414062 C24.57765625 33.67172852 24.57765625 33.67172852 24.625 31.8125 C24.66367188 30.58595703 24.70234375 29.35941406 24.7421875 28.09570312 C24.83656103 25.06395344 24.92214549 22.03221159 25 19 C25.61238525 19.14147461 26.22477051 19.28294922 26.85571289 19.42871094 C32.79448313 20.72056233 38.36825863 21.31074303 44.4375 21.25 C45.20642578 21.25773437 45.97535156 21.26546875 46.76757812 21.2734375 C53.21646131 21.25203042 58.431563 20.19426127 65 19 C65.495 33.355 65.495 33.355 66 48 C74.16752502 49.79487777 74.16752502 49.79487777 77.53540039 47.5703125 C79.55364573 44.02837436 79.50955912 40.83842906 79.43359375 36.875 C79.44319749 35.26562403 79.45296821 33.65624904 79.46289062 32.046875 C79.45428326 29.51876811 79.43742044 26.99091439 79.4152832 24.46289062 C79.40076621 22.01642091 79.41600934 19.57141752 79.43359375 17.125 C79.40887245 15.99360596 79.40887245 15.99360596 79.38365173 14.83935547 C79.41865513 11.16067405 79.55652154 9.43797455 82.22290039 6.8046875 C83.13934326 6.20914063 84.05578613 5.61359375 85 5 C86.68528688 3.35216394 88.35697047 1.68997323 90 0 C90.07630533 6.4228552 90.12870679 12.84559269 90.16479492 19.26879883 C90.17984555 21.4521115 90.20029074 23.63539411 90.22631836 25.81860352 C90.26286518 28.96378006 90.27976398 32.10855549 90.29296875 35.25390625 C90.30845261 36.2239711 90.32393646 37.19403595 90.33988953 38.1934967 C90.34144593 44.51565382 89.78337638 49.67667902 85.5703125 54.70703125 C80.27095737 58.76032179 76.01792639 60.59398254 69.34765625 60.44921875 C63.95957305 59.41822113 60.17539774 55.63039041 57.0625 51.3125 C54.15631305 44.98726957 54.93685935 38.88233101 55 32 C48.4 32 41.8 32 35 32 C35.061875 34.165625 35.12375 36.33125 35.1875 38.5625 C35.16071861 45.21097927 35.11786145 49.70139296 30.3828125 54.7109375 C25.57950093 59.10194765 21.78526765 60.41738568 15.16015625 60.35546875 C10.06361419 59.51679727 5.29674403 55.88775696 2 52 C0.40102266 48.57594914 -0.24736404 45.88602872 -0.22705078 42.11791992 C-0.22689972 41.17732224 -0.22674866 40.23672455 -0.22659302 39.2676239 C-0.21627045 38.2653627 -0.20594788 37.2631015 -0.1953125 36.23046875 C-0.1924826 35.19432938 -0.18965271 34.15819 -0.18673706 33.09065247 C-0.17556454 29.78948293 -0.15046505 26.48858719 -0.125 23.1875 C-0.11496643 20.94596747 -0.10584124 18.70443067 -0.09765625 16.46289062 C-0.07563478 10.9751674 -0.04218621 5.48760326 0 0 Z " fill="#FAFAFA" transform="translate(55,95)"/>
<path d="M0 0 C4.86302249 2.22811487 7.78268489 4.9207661 10.8046875 9.31640625 C13.72360452 18.46608843 11.31402885 27.68882552 7.8046875 36.31640625 C4.89898716 41.72180496 1.32781238 46.19238062 -3.1953125 50.31640625 C-3.1953125 49.65640625 -3.1953125 48.99640625 -3.1953125 48.31640625 C-3.8553125 48.31640625 -4.5153125 48.31640625 -5.1953125 48.31640625 C-5.5253125 46.99640625 -5.8553125 45.67640625 -6.1953125 44.31640625 C-5.5353125 44.31640625 -4.8753125 44.31640625 -4.1953125 44.31640625 C-4.1953125 43.32640625 -4.1953125 42.33640625 -4.1953125 41.31640625 C-3.5353125 41.31640625 -2.8753125 41.31640625 -2.1953125 41.31640625 C-2.8553125 40.65640625 -3.5153125 39.99640625 -4.1953125 39.31640625 C-4.9378125 40.12078125 -5.6803125 40.92515625 -6.4453125 41.75390625 C-9.08372002 44.21242235 -9.87017089 44.69827095 -13.1953125 45.31640625 C-13.2696964 40.85070176 -13.32402421 36.38532941 -13.36010742 31.91918945 C-13.37515603 30.40122187 -13.39559988 28.88329749 -13.42163086 27.36547852 C-13.45818903 25.17843948 -13.47507773 22.99197729 -13.48828125 20.8046875 C-13.51184692 18.83302612 -13.51184692 18.83302612 -13.53588867 16.8215332 C-13.17849345 13.14330864 -12.34942794 11.27055072 -10.1953125 8.31640625 C-10.9584375 8.33703125 -11.7215625 8.35765625 -12.5078125 8.37890625 C-15.1953125 8.31640625 -15.1953125 8.31640625 -18.1953125 7.31640625 C-19.1853125 7.31640625 -20.1753125 7.31640625 -21.1953125 7.31640625 C-19.90595331 6.16797702 -18.61374671 5.02274398 -17.3203125 3.87890625 C-16.24136719 2.92177734 -16.24136719 2.92177734 -15.140625 1.9453125 C-10.74930052 -1.73176041 -5.35939605 -1.66885108 0 0 Z " fill="#F5F7F7" transform="translate(133.1953125,45.68359375)"/>
<path d="M0 0 C2.0625 0.4375 2.0625 0.4375 4 1 C4 1.66 4 2.32 4 3 C7.83526661 3.29293227 7.83526661 3.29293227 10.33984375 1.85546875 C14.09931751 0.64647499 15.98734275 1.77555523 19.5625 3.3125 C25.78377221 5.93766111 30.49062259 7.1243922 37.25 7.5625 C39.14492187 7.68818359 39.14492187 7.68818359 41.078125 7.81640625 C42.04234375 7.87699219 43.0065625 7.93757813 44 8 C44 8.99 44 9.98 44 11 C44.66 11 45.32 11 46 11 C46.33 9.68 46.66 8.36 47 7 C48.98 7.33 50.96 7.66 53 8 C52.67 8.99 52.34 9.98 52 11 C51.01 11.33 50.02 11.66 49 12 C49 13.32 49 14.64 49 16 C44.60446454 17.2325778 40.41391677 17.22172014 35.875 17.25 C35.070625 17.270625 34.26625 17.29125 33.4375 17.3125 C27.18915661 17.35242552 21.8793959 16.06847412 16 14 C16.02618408 14.76143311 16.05236816 15.52286621 16.0793457 16.30737305 C16.18347015 19.76720435 16.24837729 23.22670585 16.3125 26.6875 C16.35439453 27.88568359 16.39628906 29.08386719 16.43945312 30.31835938 C16.57763661 40.23993386 16.57763661 40.23993386 13.70703125 43.328125 C11 45 11 45 7.375 45.0625 C3.55907659 43.86119078 2.85621782 43.43926029 1 40 C0.68686304 37.20985055 0.53542567 34.63117598 0.5234375 31.83984375 C0.50785797 31.05356094 0.49227844 30.26727814 0.47622681 29.45716858 C0.42878998 26.95062228 0.40097526 24.44435271 0.375 21.9375 C0.33847013 19.42727276 0.2978163 16.91720092 0.25234985 14.40711975 C0.22519852 12.84685865 0.20381465 11.28648417 0.18881226 9.72605896 C0.14291613 6.56136594 0.00803224 4.02409672 -1 1 C-0.67 0.67 -0.34 0.34 0 0 Z " fill="#22202E" transform="translate(64,100)"/>
<path d="M0 0 C0.99 0.66 1.98 1.32 3 2 C2.49475028 6.37883089 -0.21397187 8.78535216 -3 12 C-3.05270463 13.36893239 -3.05270463 13.36893239 -2 16 C-2.66 16 -3.32 16 -4 16 C-4.33 17.32 -4.66 18.64 -5 20 C-4.34 20 -3.68 20 -3 20 C-2.34 18.68 -1.68 17.36 -1 16 C-0.34 16 0.32 16 1 16 C-0.39159663 19.47899158 -1.63251488 20.48052501 -5 22 C-4.97381592 23.06436279 -4.94763184 24.12872559 -4.9206543 25.2253418 C-4.82995224 29.18541327 -4.77267911 33.14539351 -4.7253418 37.10620117 C-4.70024286 38.81827245 -4.66615571 40.53023704 -4.62280273 42.24194336 C-4.56194261 44.70713645 -4.53374568 47.17090985 -4.51171875 49.63671875 C-4.47300911 50.77919319 -4.47300911 50.77919319 -4.43351746 51.94474792 C-4.43140827 55.96797443 -4.83184986 57.78431427 -7.33520508 60.99536133 C-10 63 -10 63 -13.125 63.4375 C-16 63 -16 63 -19 61 C-20.07917226 57.76248322 -20.11425601 55.42248229 -20.09765625 52.01953125 C-20.09443359 50.85615234 -20.09121094 49.69277344 -20.08789062 48.49414062 C-20.07951172 47.27919922 -20.07113281 46.06425781 -20.0625 44.8125 C-20.05798828 43.58595703 -20.05347656 42.35941406 -20.04882812 41.09570312 C-20.03703065 38.06375332 -20.02056921 35.03190094 -20 32 C-21.10472656 32.34804687 -22.20945312 32.69609375 -23.34765625 33.0546875 C-27 34 -27 34 -29.4375 33.125 C-29.953125 32.75375 -30.46875 32.3825 -31 32 C-29.68 32 -28.36 32 -27 32 C-27.33 30.68 -27.66 29.36 -28 28 C-27.34 27.67 -26.68 27.34 -26 27 C-26.99 26.34 -27.98 25.68 -29 25 C-29.33 26.32 -29.66 27.64 -30 29 C-30.66 29 -31.32 29 -32 29 C-32 28.01 -32 27.02 -32 26 C-36.62 26 -41.24 26 -46 26 C-46 25.67 -46 25.34 -46 25 C-44.97261719 24.97421875 -43.94523437 24.9484375 -42.88671875 24.921875 C-29.89315822 24.45321353 -18.95822806 22.00513032 -9 13 C-5.6108077 8.95086597 -2.36893851 4.73787702 0 0 Z " fill="#262837" transform="translate(140,82)"/>
<path d="M0 0 C1.69262695 1.1027832 1.69262695 1.1027832 3 3 C3.26153286 5.51727719 3.3497922 7.78103966 3.29296875 10.29296875 C3.28872391 10.99899734 3.28447906 11.70502594 3.28010559 12.43244934 C3.26333034 14.68452303 3.22568243 16.93569742 3.1875 19.1875 C3.17245157 20.71548185 3.15876344 22.24347776 3.14648438 23.77148438 C3.11343089 27.51466872 3.06165832 31.25718196 3 35 C-5.3124208 29.42632098 -9.85783828 22.92589438 -12 13 C-12.46092584 9.56078412 -12.64385781 6.42164434 -12 3 C-8.46365762 -1.60796128 -5.39003434 -1.49723176 0 0 Z " fill="#22212E" transform="translate(77,56)"/>
<path d="M0 0 C3.98987927 0.65140886 5.49921968 1.3335949 8.0625 4.5 C9.60631986 11.73581657 7.48923392 19.1166909 4.0625 25.5 C-2.72063253 34.39156627 -2.72063253 34.39156627 -6.9375 36.5 C-7.03653473 32.01601216 -7.10904483 27.53260708 -7.15722656 23.04785156 C-7.17731599 21.52299915 -7.20459316 19.99822352 -7.23925781 18.47363281 C-7.28789796 16.27910402 -7.31049396 14.08559531 -7.328125 11.890625 C-7.34907227 10.57094727 -7.37001953 9.25126953 -7.39160156 7.89160156 C-6.9375 4.5 -6.9375 4.5 -5.09667969 2.06933594 C-2.9375 0.5 -2.9375 0.5 0 0 Z " fill="#2A293A" transform="translate(126.9375,54.5)"/>
<path d="M0 0 C0.99 0.66 1.98 1.32 3 2 C2.49475028 6.37883089 -0.21397187 8.78535216 -3 12 C-3.05270463 13.36893239 -3.05270463 13.36893239 -2 16 C-2.66 16 -3.32 16 -4 16 C-4.33 17.32 -4.66 18.64 -5 20 C-4.34 20 -3.68 20 -3 20 C-2.34 18.68 -1.68 17.36 -1 16 C-0.34 16 0.32 16 1 16 C-0.15173355 18.46800047 -1.04783565 20.04783565 -3 22 C-3.99 22 -4.98 22 -6 22 C-6.33 22.66 -6.66 23.32 -7 24 C-7 23.34 -7 22.68 -7 22 C-8.32 22.33 -9.64 22.66 -11 23 C-11.99 21.35 -12.98 19.7 -14 18 C-14 18.66 -14 19.32 -14 20 C-15.32 19.67 -16.64 19.34 -18 19 C-17.443125 18.69449219 -16.88625 18.38898438 -16.3125 18.07421875 C-8.99220253 13.68451334 -3.82760598 7.65521197 0 0 Z " fill="#2E2D3D" transform="translate(140,82)"/>
<path d="M0 0 C0.33 0.66 0.66 1.32 1 2 C5.69545143 1.39041542 5.69545143 1.39041542 10.3125 0.375 C12 0 12 0 14 1 C14 1.99 14 2.98 14 4 C8.23918159 5.2982126 2.91260345 6.25706972 -3 6 C-3 6.66 -3 7.32 -3 8 C-3.66 8 -4.32 8 -5 8 C-5.33 8.66 -5.66 9.32 -6 10 C-6 6 -6 6 -4 4 C-3.34 4.33 -2.68 4.66 -2 5 C-2 3.68 -2 2.36 -2 1 C-1.34 0.67 -0.68 0.34 0 0 Z " fill="#201F2B" transform="translate(64,40)"/>
<path d="M0 0 C1.5625 1.8125 1.5625 1.8125 3 4 C2.67 4.99 2.34 5.98 2 7 C1.67 7 1.34 7 1 7 C0.90235126 11.78478822 1.22887459 16.27685687 2 21 C1.34 21.33 0.68 21.66 0 22 C-2.49592524 15.84932709 -4.22758787 9.66748706 -3 3 C-1.4765625 1.2109375 -1.4765625 1.2109375 0 0 Z " fill="#2C2C35" transform="translate(68,56)"/>
<path d="M0 0 C0.99 0.33 1.98 0.66 3 1 C3 4 3 4 0.6875 6.375 C-0.199375 7.24125 -1.08625 8.1075 -2 9 C-3.03357147 10.64605826 -4.04060332 12.30963442 -5 14 C-5.66 14.66 -6.32 15.32 -7 16 C-7 13.36 -7 10.72 -7 8 C-6.01 8.33 -5.02 8.66 -4 9 C-4.33 6.69 -4.66 4.38 -5 2 C-3.35 1.67 -1.7 1.34 0 1 C0 0.67 0 0.34 0 0 Z " fill="#2A2938" transform="translate(117,42)"/>
<path d="M0 0 C0.66 0 1.32 0 2 0 C2.12375 0.804375 2.2475 1.60875 2.375 2.4375 C2.684375 3.7059375 2.684375 3.7059375 3 5 C3.66 5.33 4.32 5.66 5 6 C5.33 5.67 5.66 5.34 6 5 C6.99 5 7.98 5 9 5 C9.66 6.32 10.32 7.64 11 9 C10.34 9 9.68 9 9 9 C9 9.66 9 10.32 9 11 C7.88625 10.649375 6.7725 10.29875 5.625 9.9375 C2.19735524 8.62760669 2.19735524 8.62760669 0 10 C-1.125 6.6875 -1.125 6.6875 -2 3 C-1.34 2.01 -0.68 1.02 0 0 Z " fill="#1B1926" transform="translate(58,88)"/>
<path d="M0 0 C0.99 0.66 1.98 1.32 3 2 C2.49904971 6.34156921 -0.10523005 8.89846077 -3 12 C-3.99 12.33 -4.98 12.66 -6 13 C-6.66 12.34 -7.32 11.68 -8 11 C-7.38511719 10.31164062 -7.38511719 10.31164062 -6.7578125 9.609375 C-6.21898437 8.99578125 -5.68015625 8.3821875 -5.125 7.75 C-4.59132812 7.14671875 -4.05765625 6.5434375 -3.5078125 5.921875 C-2.0202513 4.02581254 -0.99677564 2.18709995 0 0 Z " fill="#312F44" transform="translate(140,82)"/>
<path d="M0 0 C2.20826378 -0.02722517 4.41662638 -0.04649729 6.625 -0.0625 C7.85476562 -0.07410156 9.08453125 -0.08570313 10.3515625 -0.09765625 C13.67723791 -0.00863924 16.74047588 0.36313913 20 1 C15.5 5 15.5 5 11 5 C11 4.01 11 3.02 11 2 C6.545 2.495 6.545 2.495 2 3 C1.34 2.01 0.68 1.02 0 0 Z " fill="#1E1C28" transform="translate(64,155)"/>
<path d="M0 0 C-1.24976756 3.65316671 -1.67098753 4.78065836 -5 7 C-8.6875 6.625 -8.6875 6.625 -12 6 C-7.125 2 -7.125 2 -6 2 C-6 1.34 -6 0.68 -6 0 C-3 -1 -3 -1 0 0 Z " fill="#2B2935" transform="translate(80,138)"/>
<path d="M0 0 C0.99 0 1.98 0 3 0 C3.33 0.66 3.66 1.32 4 2 C4.99 1.67 5.98 1.34 7 1 C5.75023244 4.65316671 5.32901247 5.78065836 2 8 C-1.1875 8.125 -1.1875 8.125 -4 8 C-3.01 7.34 -2.02 6.68 -1 6 C-0.26656572 2.93443402 -0.26656572 2.93443402 0 0 Z " fill="#323543" transform="translate(128,137)"/>
<path d="M0 0 C2.0625 0.4375 2.0625 0.4375 4 1 C4 1.66 4 2.32 4 3 C4.99 3 5.98 3 7 3 C6.67 3.99 6.34 4.98 6 6 C5.34 6 4.68 6 4 6 C4 6.66 4 7.32 4 8 C4.99 8.33 5.98 8.66 7 9 C5.02 9.99 5.02 9.99 3 11 C0.82905523 8.82905523 0.5137 7.84247144 -0.1875 4.9375 C-0.36667969 4.22464844 -0.54585937 3.51179688 -0.73046875 2.77734375 C-0.81941406 2.19082031 -0.90835938 1.60429688 -1 1 C-0.67 0.67 -0.34 0.34 0 0 Z " fill="#1C1A25" transform="translate(64,100)"/>
<path d="M0 0 C2.9375 -0.375 2.9375 -0.375 6 0 C7.875 1.5 7.875 1.5 9 3 C8.34 3.66 7.68 4.32 7 5 C6.34 4.67 5.68 4.34 5 4 C2.67085177 3.63858045 0.33746522 3.30300475 -2 3 C-1.34 2.01 -0.68 1.02 0 0 Z " fill="#3B3A47" transform="translate(124,55)"/>
<path d="M0 0 C0.99 0.33 1.98 0.66 3 1 C4.1875 3.5625 4.1875 3.5625 5 6 C1.98968256 6.93423645 1.13349732 7.04449911 -2 6 C-1.34 4.02 -0.68 2.04 0 0 Z " fill="#1B1827" transform="translate(50,89)"/>
<path d="M0 0 C0.433125 0.9590625 0.433125 0.9590625 0.875 1.9375 C1.82823451 4.15206079 1.82823451 4.15206079 4 5 C3.54625 5.391875 3.0925 5.78375 2.625 6.1875 C0.72357081 8.30832487 -0.06204028 10.33042235 -1 13 C-1.97608217 10.07175348 -2.08226668 8.04386724 -2 5 C-1.01 5.33 -0.02 5.66 1 6 C0.67 4.02 0.34 2.04 0 0 Z " fill="#373545" transform="translate(112,45)"/>
<path d="M0 0 C5.61 0 11.22 0 17 0 C16.67 1.32 16.34 2.64 16 4 C15.34 4 14.68 4 14 4 C14 3.01 14 2.02 14 1 C9.38 1 4.76 1 0 1 C0 0.67 0 0.34 0 0 Z " fill="#504E59" transform="translate(94,107)"/>
<path d="M0 0 C2.475 0.495 2.475 0.495 5 1 C5 3.31 5 5.62 5 8 C2.5 6.25 2.5 6.25 0 4 C0 2.68 0 1.36 0 0 Z " fill="#2F2D38" transform="translate(59,96)"/>
<path d="M0 0 C0.66 0.99 1.32 1.98 2 3 C1.1875 4.9375 1.1875 4.9375 0 7 C-0.99 7.33 -1.98 7.66 -3 8 C-3.66 7.34 -4.32 6.68 -5 6 C-3.35 4.02 -1.7 2.04 0 0 Z " fill="#413F52" transform="translate(137,87)"/>
<path d="M0 0 C1.5625 1.8125 1.5625 1.8125 3 4 C2.67 4.99 2.34 5.98 2 7 C0.35 6.67 -1.3 6.34 -3 6 C-2.42655063 3.13275314 -2.1385485 2.1385485 0 0 Z " fill="#34323C" transform="translate(68,56)"/>
<path d="M0 0 C-0.375 1.9375 -0.375 1.9375 -1 4 C-1.99 4.495 -1.99 4.495 -3 5 C-3.66 4.67 -4.32 4.34 -5 4 C-5 4.66 -5 5.32 -5 6 C-6.32 5.67 -7.64 5.34 -9 5 C-7.87926138 4.16094435 -6.75325453 3.32892169 -5.625 2.5 C-4.99851562 2.0359375 -4.37203125 1.571875 -3.7265625 1.09375 C-2 0 -2 0 0 0 Z " fill="#43424C" transform="translate(131,96)"/>
<path d="M0 0 C1.98 0.495 1.98 0.495 4 1 C4.33 2.65 4.66 4.3 5 6 C3.68 6 2.36 6 1 6 C1 5.01 1 4.02 1 3 C0.34 2.67 -0.32 2.34 -1 2 C-0.67 1.34 -0.34 0.68 0 0 Z " fill="#211F30" transform="translate(91,48)"/>
<path d="M0 0 C0.99 0.33 1.98 0.66 3 1 C2.01 1.33 1.02 1.66 0 2 C-0.73323796 4.01508358 -0.73323796 4.01508358 -1 6 C-2.65 6.33 -4.3 6.66 -6 7 C-4.02 4.69 -2.04 2.38 0 0 Z " fill="#E9E8EE" transform="translate(118,47)"/>
<path d="M0 0 C0.66 0.33 1.32 0.66 2 1 C2 2.32 2 3.64 2 5 C-0.31 5 -2.62 5 -5 5 C-4.34 4.67 -3.68 4.34 -3 4 C-3 3.34 -3 2.68 -3 2 C-2.01 1.34 -1.02 0.68 0 0 Z " fill="#1E1D2F" transform="translate(84,41)"/>
<path d="M0 0 C-0.66 1.32 -1.32 2.64 -2 4 C-4.475 3.01 -4.475 3.01 -7 2 C-7 1.34 -7 0.68 -7 0 C-4.3333581 -1.33332095 -2.83319697 -0.67102033 0 0 Z " fill="#323143" transform="translate(145,93)"/>
<path d="M0 0 C4.875 1.75 4.875 1.75 6 4 C1.25 5.125 1.25 5.125 -1 4 C-0.67 2.68 -0.34 1.36 0 0 Z " fill="#F0F0EF" transform="translate(78,46)"/>
<path d="M0 0 C1.98 0 3.96 0 6 0 C6.33 1.98 6.66 3.96 7 6 C5.83054208 5.19152271 4.66449539 4.37810888 3.5 3.5625 C2.8503125 3.11003906 2.200625 2.65757813 1.53125 2.19140625 C1.0259375 1.79824219 0.520625 1.40507813 0 1 C0 0.67 0 0.34 0 0 Z " fill="#3C3B43" transform="translate(73,85)"/>
<path d="M0 0 C2.3431213 0.25561323 4.67843403 0.59270772 7 1 C7.33 1.66 7.66 2.32 8 3 C6.68 3 5.36 3 4 3 C4 3.66 4 4.32 4 5 C3.34 4.67 2.68 4.34 2 4 C2 3.34 2 2.68 2 2 C1.34 1.34 0.68 0.68 0 0 Z " fill="#313039" transform="translate(70,55)"/>
<path d="M0 0 C0.33 0 0.66 0 1 0 C1 3.3 1 6.6 1 10 C-0.9451 7.08235 -1.45276317 5.37462715 -2 2 C-1.34 2 -0.68 2 0 2 C0 1.34 0 0.68 0 0 Z " fill="#484852" transform="translate(134,59)"/>
<path d="M0 0 C1.65 0 3.3 0 5 0 C4.34 1.65 3.68 3.3 3 5 C2.34 5 1.68 5 1 5 C0.67 3.35 0.34 1.7 0 0 Z " fill="#252234" transform="translate(122,58)"/>
</svg>
