<?xml version="1.0" encoding="utf-8"?>
<!-- Generator: Adobe Illustrator 26.0.3, SVG Export Plug-In . SVG Version: 6.00 Build 0)  -->
<svg version="1.0" id="katman_1" xmlns="http://www.w3.org/2000/svg" xmlns:xlink="http://www.w3.org/1999/xlink" x="0px" y="0px"
	 viewBox="0 0 800 600" style="enable-background:new 0 0 800 600;" xml:space="preserve">
<style type="text/css">
	.st0{fill:#8246FA;}
	.st1{fill:#1D1D1B;}
</style>
<path class="st0" d="M119.2,409.8c-1.9,0-3-1.5-3-3V257.6c-0.4-6.4,0.4-29.5,18.3-48.2c5.6-6,21.3-19.4,45.3-19.8
	c23.2-0.4,39.3,12,44.9,17.2c6,5.6,19.8,20.9,20.6,45.3c0.7,24.7-13.1,40.8-18.7,46.7c-16.5,16.8-36.6,18.7-44.5,19.1
	c-1.5,0-3-1.5-3-3c0-1.9,1.1-3,3-3c7.1,0,25.4-2.2,40.4-17.2c4.1-4.1,17.6-19.4,17.2-42.3c-0.4-22.4-14.2-37-18.7-40.8
	c-4.1-3.7-18.3-15.3-39.6-15.3c-0.4,0-0.7,0-1.1,0c-21.7,0.4-35.9,12.7-41.1,18c-16.5,16.5-16.8,37.4-16.8,43.4v149.2
	C122.2,408.6,121,409.8,119.2,409.8z"/>
<path class="st0" d="M180.1,275.9c-12,0-21.7-9.7-21.7-21.7c0-12,9.7-21.7,21.7-21.7s21.7,9.7,21.7,21.7
	C201.8,266.2,192.1,275.9,180.1,275.9z M180.1,238.1c-8.6,0-15.7,7.1-15.7,15.7c0,8.6,7.1,15.7,15.7,15.7s15.7-7.1,15.7-15.7
	C195.8,245.2,188.7,238.1,180.1,238.1z"/>
<path class="st0" d="M139.4,357.4c-1.9,0-3-1.5-3-3v-96.9c0-1.9,1.5-3,3-3c1.5,0,3,1.5,3,3v96.9
	C142.3,355.9,140.9,357.4,139.4,357.4z"/>
<path class="st0" d="M161,387.7c-1.9,0-3-1.5-3-3v-51.6c0-1.9,1.5-3,3-3c1.5,0,3,1.5,3,3v51.6C164.4,386.2,162.9,387.7,161,387.7z"
	/>
<path class="st0" d="M99.7,363.4c-1.9,0-3-1.5-3-3v-65.8c0-1.9,1.5-3,3-3c1.5,0,3,1.5,3,3v65.8C102.7,362.3,101.6,363.4,99.7,363.4z
	"/>
<path class="st0" d="M180.1,297.6c-24.3,0-43.8-19.8-43.8-43.8c0-23.9,19.4-43.8,43.8-43.8s43.8,19.8,43.8,43.8
	C223.9,277.8,204.1,297.6,180.1,297.6z M180.1,216.1c-20.9,0-37.8,16.8-37.8,37.8s16.8,37.8,37.8,37.8s37.8-16.8,37.8-37.8
	S200.7,216.1,180.1,216.1z"/>
<path class="st1" d="M493.9,249.7h-12.7c-0.7,0-1.1,0.4-1.5,0.7L456.9,280c-1.5,1.9-2.6,3.7-3.7,5.2c-0.7-1.5-2.2-3.4-3.7-5.2
	l-23.2-29.5c-0.4-0.4-0.7-0.7-1.5-0.7h-12.3c-0.7,0-1.5,0.4-1.5,1.1c-0.4,0.7-0.4,1.5,0.4,1.9l34.8,45.6v40.8c0,1.1,0.7,1.9,1.9,1.9
	h10.8c1.1,0,1.9-0.7,1.9-1.9V298l34.8-45.6c0.4-0.7,0.4-1.5,0.4-1.9C495.4,250.5,494.6,249.7,493.9,249.7z"/>
<path class="st1" d="M594.9,249.7h-75.9c-1.1,0-1.9,0.7-1.9,1.9v9.3c0,1.1,0.7,1.9,1.9,1.9h30.7v76.3c0,1.1,0.7,1.9,1.9,1.9h10.8
	c1.1,0,1.9-0.7,1.9-1.9v-75.9h30.7c1.1,0,1.9-0.7,1.9-1.9V252C596.7,250.8,596,249.7,594.9,249.7z"/>
<path class="st1" d="M348.4,249.7h-35.9c-1.1,0-1.9,0.7-1.9,1.9v87.5c0,1.1,0.7,1.9,1.9,1.9h10.8c1.1,0,1.9-0.7,1.9-1.9v-15v-5.2
	v-13.1v-2.2v-41.1h24.3c13.5,0,23.2,9,23.2,21.7s-9.7,21.7-23.6,21.7h-3.7c0,0-1.1,0-1.5,0.7c-0.4,0.4-0.4,1.1-0.4,1.1
	c0,3,0,6.4,0,9.3c0,0,0,0.7,0.4,1.5c0.4,0.4,1.1,0.4,1.5,0.4c0.7,0,1.9,0,2.6,0c1.9,0,20.6,1.1,31.8-13.1c7.1-9,7.5-19.4,7.5-21.7
	C388,263.9,372,249.7,348.4,249.7z"/>
<path class="st1" d="M641.2,286v-34.4c0-1.1-0.7-1.9-1.9-1.9h-10.8c-1.1,0-1.9,0.7-1.9,1.9v87.5c0,1.1,0.7,1.9,1.9,1.9h10.8
	c1.1,0,1.9-0.7,1.9-1.9v-40"/>
<path class="st1" d="M701.1,249.7h-10.8c-1.1,0-1.9,0.7-1.9,1.9V286h-29.5c-0.7,0-1.5,0.7-1.5,1.5v10.1c0,0.7,0.7,1.5,1.5,1.5h29.5
	v40.4c0,1.1,0.7,1.9,1.9,1.9h10.8c1.1,0,1.9-0.7,1.9-1.9v-87.9C702.9,250.8,702.2,249.7,701.1,249.7z"/>
</svg>
